<svg id="svg" version="1.1" xmlns="http://www.w3.org/2000/svg" xmlns:xlink="http://www.w3.org/1999/xlink" width="400" height="373.5941320293398" viewBox="0, 0, 400,373.5941320293398"><g id="svgg"><path id="path0" d="M153.470 26.201 C 148.071 27.011,142.889 31.249,140.374 36.914 L 139.252 39.439 139.065 113.798 L 138.879 188.157 135.514 189.359 C 133.664 190.019,130.656 191.110,128.830 191.782 C 124.944 193.212,125.401 193.514,123.445 188.224 C 122.761 186.374,122.052 184.523,121.869 184.112 C 121.687 183.701,120.761 181.346,119.812 178.879 C 118.863 176.411,117.675 173.383,117.173 172.150 C 116.671 170.916,116.260 169.764,116.261 169.589 C 116.261 169.415,116.021 168.742,115.727 168.094 C 115.433 167.446,114.750 165.738,114.208 164.299 C 113.667 162.860,112.813 160.673,112.312 159.439 C 111.810 158.206,111.400 157.061,111.401 156.895 C 111.401 156.730,111.095 155.889,110.720 155.026 C 110.345 154.164,109.568 152.196,108.993 150.654 C 108.418 149.112,107.804 147.514,107.628 147.103 C 107.452 146.692,106.372 143.916,105.228 140.935 C 104.085 137.953,102.918 134.925,102.635 134.206 C 101.917 132.378,98.170 122.567,96.282 117.570 C 95.739 116.131,95.117 114.533,94.901 114.019 C 94.572 113.235,90.983 103.903,87.640 95.140 C 87.170 93.907,86.423 91.972,85.982 90.841 C 85.540 89.710,84.867 87.944,84.486 86.916 C 84.105 85.888,83.432 84.121,82.990 82.991 C 82.548 81.860,81.803 79.925,81.333 78.692 C 80.040 75.295,75.571 63.674,74.542 61.030 C 74.042 59.747,73.204 57.560,72.679 56.171 C 72.155 54.781,71.491 53.056,71.203 52.336 C 69.619 48.370,67.246 42.053,66.359 39.439 C 60.467 22.085,38.143 21.718,32.290 38.879 C 31.396 41.501,31.164 322.903,32.056 323.794 C 32.313 324.051,32.523 325.025,32.523 325.957 C 32.523 330.067,37.214 335.748,42.430 337.954 C 51.644 341.851,61.973 337.389,65.897 327.816 L 66.725 325.794 66.914 288.810 L 67.103 251.826 72.523 249.831 C 75.505 248.733,79.542 247.263,81.495 246.563 C 83.449 245.863,86.477 244.760,88.224 244.113 C 89.972 243.465,91.907 242.782,92.523 242.595 C 93.140 242.408,93.981 242.097,94.393 241.905 C 94.804 241.712,95.897 241.301,96.822 240.990 C 98.643 240.379,103.003 238.768,103.949 238.358 C 104.648 238.055,104.900 238.509,106.729 243.364 C 107.465 245.318,108.225 247.252,108.419 247.664 C 108.612 248.075,109.287 249.841,109.918 251.589 C 111.207 255.160,112.768 259.249,113.271 260.374 C 113.921 261.827,115.514 266.044,115.514 266.312 C 115.514 266.461,115.821 267.289,116.196 268.151 C 116.571 269.014,117.351 270.981,117.929 272.523 C 118.507 274.065,119.184 275.832,119.434 276.449 C 119.684 277.065,120.098 278.159,120.355 278.879 C 120.613 279.598,120.967 280.523,121.142 280.935 C 121.317 281.346,121.993 283.112,122.643 284.860 C 123.293 286.607,124.047 288.542,124.318 289.159 C 124.589 289.776,125.514 292.131,126.374 294.393 C 129.048 301.431,129.850 303.533,132.510 310.467 C 132.983 311.701,133.918 314.140,134.587 315.888 C 140.059 330.175,140.849 331.652,144.558 334.515 C 154.081 341.866,166.346 339.859,172.113 330.005 C 174.521 325.891,174.362 329.863,174.574 268.470 L 174.766 212.641 176.262 212.094 C 177.084 211.793,178.178 211.400,178.692 211.221 C 179.206 211.043,181.056 210.367,182.804 209.719 C 184.551 209.072,186.738 208.286,187.664 207.974 C 188.589 207.661,189.876 207.169,190.524 206.880 C 191.172 206.591,191.831 206.355,191.990 206.355 C 192.148 206.355,193.300 205.952,194.550 205.459 C 197.520 204.288,199.252 203.925,199.252 204.475 C 199.252 204.844,200.999 209.668,201.896 211.776 C 202.070 212.187,202.821 214.121,203.563 216.075 C 207.375 226.108,211.226 236.046,211.787 237.302 C 212.089 237.978,212.336 238.709,212.336 238.928 C 212.336 239.147,212.578 239.856,212.873 240.504 C 213.747 242.421,217.196 251.367,217.196 251.716 C 217.196 251.892,217.436 252.567,217.729 253.215 C 218.231 254.322,219.408 257.326,223.174 267.103 C 225.308 272.641,226.440 275.605,227.531 278.505 C 228.033 279.841,228.621 281.355,228.837 281.869 C 229.172 282.667,233.301 293.382,236.111 300.748 C 236.582 301.981,237.325 303.916,237.763 305.047 C 238.201 306.178,238.871 307.944,239.253 308.972 C 239.957 310.869,241.167 314.033,242.611 317.757 C 244.358 322.261,245.212 324.753,245.585 326.426 C 248.915 341.402,271.532 343.661,278.299 329.695 C 280.072 326.036,280.032 327.919,280.017 249.750 C 280.009 208.251,280.147 174.916,280.327 174.636 C 280.607 174.199,285.358 172.408,307.477 164.396 C 309.738 163.577,312.935 162.414,314.579 161.812 C 316.224 161.210,318.159 160.538,318.879 160.320 C 319.598 160.101,320.355 159.792,320.561 159.634 C 320.766 159.475,321.776 159.084,322.804 158.764 C 323.832 158.445,325.850 157.740,327.290 157.197 C 328.729 156.654,330.664 155.953,331.589 155.639 C 332.514 155.325,333.801 154.832,334.449 154.544 C 335.097 154.255,335.766 154.019,335.935 154.019 C 336.240 154.019,340.799 152.367,342.243 151.733 C 342.654 151.553,344.841 150.753,347.103 149.956 C 349.364 149.160,353.318 147.743,355.888 146.809 C 358.458 145.875,361.570 144.908,362.804 144.661 C 373.123 142.591,380.072 129.619,375.528 120.907 C 375.215 120.305,374.956 119.645,374.953 119.439 C 374.941 118.477,371.037 114.150,367.664 111.360 C 365.607 109.659,363.739 108.089,363.512 107.872 C 363.284 107.654,360.183 104.953,356.620 101.869 C 353.056 98.785,348.018 94.411,345.423 92.150 C 342.828 89.888,339.631 87.112,338.318 85.981 C 337.005 84.850,333.806 82.075,331.209 79.813 C 326.377 75.605,316.578 67.096,312.897 63.912 C 308.210 59.857,300.650 53.281,294.218 47.664 C 290.451 44.374,286.600 41.037,285.661 40.248 C 283.812 38.696,280.550 35.851,276.662 32.399 C 264.921 21.975,249.629 25.152,245.470 38.879 C 245.203 39.761,245.009 57.985,244.873 94.916 L 244.673 149.644 243.178 150.150 C 242.355 150.428,241.346 150.826,240.935 151.034 C 240.523 151.243,239.682 151.563,239.065 151.745 C 238.449 151.928,236.514 152.608,234.766 153.257 C 233.019 153.905,230.916 154.667,230.093 154.950 C 229.271 155.233,227.421 155.906,225.981 156.446 C 220.298 158.576,219.065 158.842,219.065 157.939 C 219.065 157.628,218.901 157.081,218.699 156.724 C 218.497 156.367,217.734 154.477,217.002 152.523 C 216.270 150.570,215.519 148.636,215.332 148.224 C 214.706 146.846,213.084 142.561,213.084 142.287 C 213.084 142.137,212.777 141.309,212.402 140.447 C 212.027 139.584,211.247 137.617,210.669 136.075 C 210.091 134.533,209.407 132.766,209.150 132.150 C 208.892 131.533,208.558 130.607,208.408 130.093 C 208.258 129.579,207.848 128.486,207.498 127.664 C 207.147 126.841,206.389 124.907,205.813 123.364 C 205.237 121.822,204.546 120.056,204.276 119.439 C 204.007 118.822,203.084 116.467,202.225 114.206 C 200.757 110.342,200.276 109.080,197.950 102.988 C 196.282 98.620,193.500 91.388,191.192 85.421 C 190.238 82.953,188.988 79.673,188.414 78.131 C 187.320 75.189,185.242 69.777,183.748 65.981 C 183.262 64.748,182.450 62.645,181.943 61.308 C 180.674 57.967,178.332 51.886,176.289 46.629 C 175.349 44.209,174.579 42.054,174.579 41.839 C 174.579 41.624,174.315 40.576,173.991 39.509 C 171.055 29.827,163.212 24.740,153.470 26.201 M286.374 87.644 C 287.309 88.477,289.916 90.757,292.167 92.710 C 294.418 94.664,296.764 96.705,297.382 97.247 C 297.999 97.789,300.692 100.126,303.364 102.439 C 306.037 104.753,309.234 107.526,310.467 108.601 C 315.033 112.580,319.545 116.505,321.812 118.470 C 324.536 120.831,324.616 120.675,319.813 122.366 C 317.757 123.090,314.645 124.212,312.897 124.861 C 311.150 125.509,309.131 126.212,308.411 126.423 C 307.692 126.634,306.935 126.937,306.729 127.095 C 306.523 127.254,305.514 127.645,304.486 127.965 C 303.458 128.284,301.439 128.989,300.000 129.532 C 298.561 130.075,296.626 130.775,295.701 131.090 C 294.776 131.404,293.489 131.897,292.841 132.185 C 292.193 132.474,291.524 132.710,291.355 132.710 C 291.050 132.710,286.837 134.246,284.673 135.146 C 282.517 136.043,280.759 136.500,280.376 136.263 C 279.962 136.007,279.829 84.244,280.240 83.174 C 280.464 82.590,281.758 83.533,286.374 87.644 M68.561 144.019 C 69.132 145.509,70.018 147.822,70.531 149.159 C 71.043 150.495,71.878 152.682,72.385 154.019 C 72.892 155.355,73.540 157.037,73.825 157.757 C 74.110 158.477,74.783 160.243,75.322 161.682 C 75.860 163.121,76.454 164.636,76.640 165.047 C 76.826 165.458,77.508 167.224,78.155 168.972 C 79.559 172.768,82.478 180.297,83.155 181.869 C 83.420 182.486,84.109 184.336,84.686 185.981 C 85.262 187.626,85.851 189.140,85.995 189.346 C 86.139 189.551,86.551 190.622,86.910 191.724 C 87.270 192.827,87.796 194.173,88.079 194.715 C 88.362 195.257,88.594 195.869,88.595 196.075 C 88.596 196.418,89.844 199.642,91.074 202.479 C 91.896 204.375,91.881 205.369,91.028 205.536 C 90.617 205.616,89.776 205.896,89.159 206.158 C 88.542 206.420,86.523 207.178,84.673 207.842 C 82.822 208.506,80.720 209.271,80.000 209.543 C 79.280 209.814,77.430 210.494,75.888 211.053 C 74.346 211.613,72.046 212.467,70.777 212.951 C 69.509 213.435,68.121 213.832,67.693 213.832 L 66.916 213.832 66.916 177.570 C 66.916 157.626,67.053 141.308,67.220 141.308 C 67.387 141.308,67.991 142.528,68.561 144.019 M175.614 143.364 C 176.087 144.668,179.336 153.103,179.790 154.206 C 179.959 154.617,180.568 156.215,181.143 157.757 C 181.717 159.299,182.474 161.234,182.825 162.056 C 183.176 162.879,183.585 163.972,183.735 164.486 C 183.886 165.000,184.235 165.925,184.511 166.542 C 185.501 168.751,186.078 170.853,185.751 171.055 C 185.569 171.168,184.284 171.659,182.896 172.147 C 181.509 172.634,179.196 173.462,177.757 173.985 C 176.318 174.509,175.014 174.941,174.860 174.945 C 174.706 174.950,174.579 167.434,174.579 158.243 C 174.579 149.052,174.721 141.693,174.893 141.888 C 175.066 142.083,175.390 142.748,175.614 143.364 M225.650 167.442 C 231.131 170.784,227.662 180.694,218.965 186.542 L 217.575 187.477 217.573 190.676 L 217.570 193.875 215.132 194.833 C 212.125 196.015,212.193 196.109,212.021 190.561 C 211.885 186.214,211.722 185.668,210.867 186.698 C 210.625 186.990,208.796 187.842,206.802 188.592 C 204.809 189.343,202.790 190.114,202.317 190.306 C 201.481 190.646,201.459 190.782,201.519 195.173 C 201.589 200.239,201.679 200.036,198.901 201.084 C 196.385 202.033,196.587 202.313,196.162 197.294 C 195.739 192.306,195.979 192.723,193.972 193.496 C 192.169 194.190,191.402 194.928,191.402 195.965 C 191.402 196.714,188.414 203.304,187.606 204.336 C 184.220 208.666,179.554 210.808,176.763 209.314 C 176.155 208.989,175.844 209.055,175.198 209.648 C 174.755 210.055,173.467 210.756,172.336 211.207 C 171.206 211.657,169.728 212.264,169.053 212.555 C 165.720 213.991,164.982 213.272,164.592 208.206 L 164.292 204.299 162.613 209.494 C 160.834 215.001,159.702 216.827,158.074 216.817 C 155.978 216.803,155.551 215.412,155.490 208.411 C 155.449 203.742,155.428 203.617,154.950 205.234 C 153.951 208.615,152.438 214.066,151.993 215.888 C 151.268 218.849,149.099 220.935,146.743 220.935 C 146.282 220.935,145.678 215.228,145.221 206.542 C 144.925 200.926,144.851 200.626,143.877 201.147 C 143.449 201.376,142.065 201.948,140.802 202.418 C 139.538 202.888,138.210 203.396,137.850 203.546 C 137.285 203.781,137.197 203.596,137.201 202.190 C 137.212 198.742,137.220 198.735,144.589 196.054 C 150.042 194.069,150.062 194.092,150.565 202.804 L 150.845 207.664 151.910 204.299 C 154.123 197.307,154.485 196.451,155.743 195.234 C 158.746 192.327,160.109 193.887,160.314 200.462 C 160.480 205.796,160.692 205.943,162.075 201.682 C 164.030 195.665,165.151 194.289,167.600 194.904 C 169.105 195.282,169.307 196.086,169.581 202.761 C 169.721 206.177,169.852 208.969,169.871 208.966 C 172.608 208.487,174.746 207.084,174.639 205.837 C 174.229 201.086,178.923 196.231,187.181 192.864 C 189.296 192.002,189.283 192.027,190.862 185.981 C 191.130 184.953,191.724 182.682,192.180 180.935 C 193.179 177.111,192.583 177.790,196.291 176.250 C 200.076 174.677,200.374 174.659,200.374 176.000 C 200.374 177.662,201.165 187.084,201.318 187.237 C 201.448 187.367,205.371 185.989,209.533 184.352 L 211.402 183.617 211.402 180.505 L 211.402 177.394 213.458 176.559 C 216.681 175.250,216.818 175.309,216.850 178.037 C 216.865 179.322,216.993 181.131,217.133 182.056 L 217.389 183.738 219.093 181.967 C 224.354 176.500,223.153 170.640,217.266 173.055 C 216.302 173.450,214.377 174.205,212.988 174.731 C 206.482 177.198,205.361 177.628,204.531 177.975 C 203.315 178.482,203.247 178.323,203.552 175.693 C 203.846 173.166,203.907 173.115,208.674 171.439 C 209.558 171.129,211.626 170.351,213.271 169.711 C 214.916 169.071,216.682 168.400,217.196 168.220 C 217.710 168.040,218.804 167.638,219.626 167.327 C 221.719 166.536,224.243 166.584,225.650 167.442 M194.422 184.393 C 193.944 186.294,193.472 188.479,193.373 189.246 L 193.194 190.642 194.354 190.238 L 195.514 189.833 195.514 185.384 C 195.514 180.040,195.517 180.042,194.422 184.393 M244.770 205.545 C 244.861 222.353,244.710 225.347,243.906 222.710 C 243.564 221.587,241.184 215.336,240.740 214.393 C 240.547 213.981,239.877 212.215,239.252 210.467 C 238.628 208.720,237.958 206.953,237.765 206.542 C 237.572 206.131,236.885 204.364,236.239 202.617 C 234.308 197.391,233.249 194.647,232.684 193.401 C 231.969 191.826,231.872 191.969,234.299 191.037 C 235.481 190.583,237.037 189.986,237.757 189.710 C 238.477 189.434,239.907 188.942,240.935 188.617 C 241.963 188.292,243.056 187.863,243.364 187.664 C 244.622 186.852,244.673 187.492,244.770 205.545 M185.981 196.704 C 182.045 198.765,180.232 201.471,181.161 203.895 C 182.061 206.239,186.744 201.319,187.804 196.916 C 188.098 195.697,187.940 195.678,185.981 196.704 M139.065 226.729 C 139.065 227.013,138.897 227.350,138.692 227.477 C 138.479 227.608,138.318 227.286,138.318 226.729 C 138.318 226.172,138.479 225.850,138.692 225.981 C 138.897 226.108,139.065 226.445,139.065 226.729 " stroke="none" fill="#040405" fill-rule="evenodd"></path><path id="path1" d="M0.000 186.916 L 0.000 373.832 200.000 373.832 L 400.000 373.832 400.000 186.916 L 400.000 0.000 200.000 0.000 L 0.000 0.000 0.000 186.916 M163.390 26.710 C 166.131 27.824,169.435 30.271,170.890 32.265 C 172.402 34.338,174.206 37.922,174.206 38.855 C 174.206 39.789,174.905 41.880,177.276 48.037 C 178.306 50.710,179.530 53.907,179.998 55.140 C 181.278 58.521,183.101 63.266,184.881 67.850 C 185.760 70.112,186.927 73.140,187.475 74.579 C 188.024 76.019,188.869 78.206,189.353 79.439 C 189.837 80.673,190.672 82.860,191.209 84.299 C 191.746 85.738,192.418 87.505,192.703 88.224 C 192.988 88.944,193.634 90.626,194.138 91.963 C 194.642 93.299,195.740 96.159,196.578 98.318 C 197.416 100.477,198.875 104.262,199.820 106.729 C 200.765 109.196,201.781 111.745,202.077 112.393 C 202.374 113.041,202.617 113.685,202.617 113.825 C 202.617 113.964,203.054 115.200,203.589 116.572 C 204.123 117.943,204.973 120.159,205.478 121.495 C 205.982 122.832,206.547 124.262,206.733 124.673 C 206.920 125.084,207.601 126.850,208.248 128.598 C 208.895 130.346,210.139 133.626,211.013 135.888 C 213.438 142.159,214.771 145.639,216.243 149.533 C 216.981 151.486,217.737 153.356,217.924 153.689 C 218.110 154.021,218.443 154.947,218.664 155.745 C 219.476 158.681,218.020 158.923,233.645 153.253 C 235.804 152.469,238.941 151.332,240.617 150.726 C 242.292 150.119,243.849 149.509,244.075 149.369 C 244.371 149.186,244.486 134.097,244.486 95.510 C 244.486 39.114,244.468 39.737,246.193 36.145 C 252.097 23.855,268.184 22.189,277.757 32.875 C 277.860 32.990,279.121 34.091,280.561 35.322 C 282.000 36.552,283.262 37.650,283.364 37.761 C 283.467 37.873,284.634 38.884,285.958 40.010 C 287.282 41.135,288.638 42.308,288.972 42.617 C 289.306 42.925,291.242 44.607,293.273 46.355 C 295.304 48.103,297.901 50.369,299.043 51.391 C 300.186 52.413,301.440 53.506,301.829 53.821 C 302.637 54.474,305.266 56.737,308.749 59.779 C 310.066 60.928,312.010 62.626,313.070 63.551 C 314.130 64.477,316.659 66.664,318.690 68.411 C 320.721 70.159,322.652 71.841,322.980 72.150 C 323.309 72.458,324.665 73.629,325.994 74.751 C 327.324 75.874,329.171 77.472,330.101 78.303 C 332.014 80.014,334.514 82.192,341.495 88.234 C 344.168 90.548,347.364 93.317,348.598 94.389 C 354.114 99.182,358.030 102.591,359.065 103.502 C 359.682 104.044,362.369 106.338,365.035 108.599 C 375.421 117.406,377.000 119.896,377.000 127.477 C 377.000 136.639,369.270 145.421,361.204 145.421 C 360.707 145.421,359.770 145.665,359.122 145.965 C 357.950 146.506,356.109 147.189,352.897 148.276 C 351.972 148.589,350.879 148.999,350.467 149.187 C 350.056 149.376,347.869 150.182,345.607 150.980 C 338.181 153.598,320.577 160.001,319.813 160.361 C 319.402 160.555,318.308 160.919,317.383 161.170 C 316.458 161.421,315.514 161.766,315.286 161.937 C 315.058 162.107,314.133 162.483,313.230 162.771 C 312.327 163.059,310.664 163.640,309.533 164.062 C 304.281 166.022,301.014 167.193,299.813 167.545 C 299.093 167.756,298.336 168.058,298.131 168.217 C 297.925 168.376,296.916 168.767,295.888 169.086 C 294.860 169.405,292.841 170.111,291.402 170.653 C 289.963 171.196,288.028 171.894,287.103 172.205 C 286.178 172.516,285.084 172.922,284.673 173.109 C 284.262 173.295,283.252 173.661,282.430 173.922 L 280.935 174.396 280.748 249.721 C 280.540 333.609,280.791 325.937,278.093 330.702 C 270.073 344.862,248.590 341.446,244.877 325.421 C 244.639 324.393,243.955 322.290,243.358 320.748 C 242.761 319.206,241.671 316.346,240.935 314.393 C 240.199 312.439,239.444 310.505,239.257 310.093 C 239.071 309.682,238.508 308.252,238.008 306.916 C 237.508 305.579,236.386 302.636,235.516 300.374 C 234.645 298.112,233.517 295.168,233.008 293.832 C 231.297 289.337,230.657 287.682,228.970 283.387 C 228.046 281.036,227.290 278.958,227.290 278.771 C 227.290 278.584,227.044 277.901,226.745 277.253 C 226.445 276.605,225.261 273.636,224.114 270.654 C 221.218 263.130,221.093 262.806,220.434 261.121 C 220.112 260.299,219.406 258.449,218.866 257.009 C 217.848 254.299,217.062 252.273,214.809 246.542 C 214.082 244.692,212.969 241.748,212.336 240.000 C 211.704 238.252,210.616 235.393,209.919 233.645 C 209.221 231.897,208.219 229.332,207.690 227.944 C 205.772 222.908,204.773 220.300,203.285 216.449 C 202.452 214.290,201.349 211.430,200.835 210.093 C 200.321 208.757,199.671 207.133,199.390 206.486 C 199.108 205.838,198.879 205.123,198.879 204.897 C 198.879 204.327,197.451 204.678,193.271 206.276 C 192.963 206.394,188.757 207.934,183.925 209.698 L 175.140 212.905 174.928 268.602 C 174.702 327.890,174.783 325.656,172.721 329.713 C 167.341 340.303,152.873 342.497,143.401 334.160 C 140.528 331.631,139.345 329.490,136.192 321.121 C 135.689 319.785,135.044 318.103,134.759 317.383 C 134.474 316.664,133.799 314.897,133.258 313.458 C 132.718 312.019,131.879 309.832,131.395 308.598 C 130.911 307.364,130.096 305.262,129.585 303.925 C 127.424 298.275,125.171 292.433,124.685 291.215 C 124.397 290.495,123.721 288.729,123.183 287.290 C 122.644 285.850,122.051 284.336,121.865 283.925 C 121.678 283.514,120.997 281.748,120.349 280.000 C 119.702 278.252,118.584 275.308,117.863 273.458 C 117.143 271.607,116.058 268.748,115.453 267.103 C 114.483 264.465,111.524 256.821,110.678 254.766 C 110.508 254.355,109.900 252.757,109.325 251.215 C 108.750 249.673,107.994 247.738,107.645 246.916 C 107.296 246.093,106.799 244.748,106.540 243.925 C 106.282 243.103,105.940 242.262,105.779 242.056 C 105.619 241.850,105.336 241.094,105.150 240.374 C 104.758 238.855,104.071 238.611,102.351 239.379 C 101.675 239.681,100.364 240.185,99.439 240.499 C 95.863 241.711,89.124 244.131,88.411 244.459 C 88.000 244.649,86.065 245.356,84.112 246.031 C 82.159 246.706,80.140 247.475,79.626 247.739 C 79.112 248.004,78.485 248.221,78.232 248.222 C 77.979 248.223,76.717 248.636,75.428 249.140 C 74.139 249.644,71.822 250.542,70.280 251.136 L 67.477 252.217 67.284 288.819 C 67.131 318.149,66.992 325.718,66.588 326.916 C 62.161 340.039,46.323 344.056,36.633 334.512 C 34.355 332.268,32.150 328.443,32.150 326.736 C 32.150 326.189,31.896 324.996,31.586 324.085 C 30.633 321.288,30.943 41.859,31.902 38.724 C 34.767 29.361,45.433 23.581,54.298 26.587 C 61.109 28.897,64.320 32.340,67.084 40.292 C 68.230 43.590,71.018 51.042,71.800 52.897 C 71.973 53.308,72.647 55.075,73.297 56.822 C 73.947 58.570,74.708 60.505,74.987 61.121 C 75.266 61.738,75.903 63.336,76.402 64.673 C 77.402 67.353,78.373 69.900,80.749 76.075 C 81.620 78.336,82.745 81.280,83.249 82.617 C 83.753 83.953,84.724 86.477,85.406 88.224 C 86.628 91.351,88.983 97.467,90.660 101.869 C 92.112 105.682,93.309 108.806,94.955 113.084 C 95.826 115.346,96.953 118.290,97.460 119.626 C 97.967 120.963,99.100 123.907,99.978 126.168 C 100.857 128.430,102.091 131.626,102.722 133.271 C 103.353 134.916,104.742 138.533,105.808 141.308 C 106.874 144.084,108.157 147.449,108.659 148.785 C 109.161 150.121,109.725 151.551,109.911 151.963 C 110.097 152.374,110.779 154.140,111.426 155.888 C 112.072 157.636,113.349 161.000,114.263 163.364 C 117.759 172.406,118.844 175.224,119.806 177.757 C 120.353 179.196,121.041 180.904,121.335 181.552 C 121.629 182.200,121.869 182.859,121.869 183.018 C 121.869 183.333,123.488 187.554,124.296 189.346 C 124.575 189.963,124.919 190.935,125.061 191.507 C 125.271 192.348,125.473 192.503,126.118 192.318 C 127.170 192.017,136.186 188.720,137.861 188.024 L 138.712 187.670 138.685 114.116 C 138.658 41.304,138.665 40.539,139.411 38.385 C 142.956 28.150,153.864 22.839,163.390 26.710 M280.748 109.714 C 280.748 134.748,280.782 136.141,281.402 135.887 C 281.762 135.740,283.822 134.987,285.981 134.215 C 288.140 133.442,290.327 132.641,290.841 132.433 C 291.355 132.226,293.374 131.511,295.327 130.845 C 297.280 130.179,299.047 129.532,299.252 129.408 C 299.757 129.104,304.210 127.520,305.610 127.148 C 306.229 126.983,307.070 126.664,307.479 126.438 C 307.889 126.212,308.981 125.777,309.907 125.472 C 310.832 125.166,313.019 124.385,314.766 123.737 C 316.514 123.089,318.533 122.385,319.252 122.174 C 319.972 121.962,320.729 121.681,320.935 121.549 C 321.140 121.417,321.834 121.140,322.477 120.935 L 323.647 120.561 317.845 115.514 C 314.654 112.738,311.358 109.879,310.522 109.159 C 309.685 108.439,307.552 106.589,305.783 105.047 C 304.014 103.505,301.494 101.318,300.183 100.187 C 298.073 98.367,289.960 91.310,286.914 88.646 C 286.297 88.106,284.657 86.676,283.270 85.468 L 280.748 83.273 280.748 109.714 M67.290 178.048 C 67.290 197.523,67.428 213.458,67.597 213.458 C 68.049 213.458,71.491 212.342,72.190 211.970 C 72.520 211.793,74.371 211.106,76.302 210.443 C 78.233 209.779,80.234 209.068,80.748 208.862 C 82.532 208.147,86.549 206.703,87.850 206.308 C 88.570 206.090,89.319 205.759,89.514 205.573 C 89.709 205.386,90.172 205.234,90.542 205.234 C 91.553 205.234,90.824 202.238,88.586 197.196 C 88.403 196.785,87.652 194.850,86.916 192.897 C 86.180 190.944,85.436 189.009,85.263 188.598 C 84.053 185.732,82.988 182.932,82.987 182.617 C 82.987 182.411,82.753 181.797,82.469 181.251 C 82.184 180.706,81.752 179.612,81.508 178.821 C 81.264 178.030,80.833 176.879,80.550 176.262 C 80.266 175.645,79.515 173.710,78.880 171.963 C 78.246 170.215,77.573 168.449,77.385 168.037 C 77.197 167.626,76.513 165.860,75.864 164.112 C 75.215 162.364,74.541 160.598,74.366 160.187 C 74.191 159.776,73.446 157.841,72.710 155.888 C 71.974 153.935,71.220 152.000,71.033 151.589 C 70.520 150.458,68.889 146.107,68.582 145.047 C 67.331 140.736,67.290 141.794,67.290 178.048 M174.967 158.972 C 174.959 167.556,175.054 174.579,175.177 174.579 C 175.300 174.579,175.931 174.330,176.579 174.025 C 177.227 173.720,178.514 173.224,179.439 172.923 C 185.083 171.088,185.906 170.658,185.420 169.796 C 185.223 169.445,184.463 167.561,183.731 165.607 C 182.999 163.654,182.257 161.720,182.082 161.308 C 181.907 160.897,181.233 159.131,180.585 157.383 C 179.936 155.636,179.253 153.869,179.068 153.458 C 178.588 152.392,176.972 148.088,176.472 146.542 C 175.038 142.108,174.980 142.582,174.967 158.972 M220.374 167.497 C 219.551 167.693,218.542 168.013,218.131 168.209 C 217.720 168.404,215.953 169.095,214.206 169.744 C 212.458 170.392,210.692 171.075,210.280 171.259 C 209.869 171.444,208.673 171.895,207.621 172.260 C 204.758 173.256,204.221 173.772,203.939 175.794 C 203.783 176.923,203.833 177.570,204.077 177.570 C 204.442 177.570,212.430 174.565,214.019 173.830 C 218.155 171.916,221.028 171.561,221.878 172.858 C 223.539 175.394,222.753 178.613,219.676 181.867 C 216.859 184.845,216.449 184.486,216.449 179.041 C 216.449 176.021,216.331 175.908,214.094 176.757 C 211.784 177.634,211.841 177.526,211.930 180.880 L 212.008 183.830 208.026 185.373 C 205.837 186.222,203.911 186.916,203.748 186.916 C 203.584 186.916,202.972 187.164,202.388 187.467 C 200.847 188.266,200.756 188.001,200.317 181.461 C 199.851 174.496,200.099 175.083,198.014 176.005 C 197.093 176.413,195.829 176.858,195.205 176.995 C 193.807 177.302,193.550 177.642,192.929 180.000 C 192.658 181.028,192.024 183.299,191.520 185.047 C 191.016 186.794,190.426 189.016,190.209 189.984 C 189.730 192.115,189.331 192.479,185.981 193.840 C 184.542 194.425,183.099 195.125,182.774 195.396 C 182.450 195.666,181.986 195.888,181.744 195.888 C 179.413 195.888,174.635 203.337,175.161 206.151 C 175.366 207.249,175.295 207.320,173.201 208.120 C 169.255 209.628,169.587 210.072,169.148 202.710 C 168.797 196.817,168.692 196.189,167.931 195.428 C 166.487 193.984,164.235 196.124,163.034 200.082 C 162.487 201.884,160.945 205.909,160.713 206.141 C 160.603 206.251,160.312 204.000,160.067 201.139 C 159.554 195.153,159.470 194.835,158.311 194.544 C 156.824 194.171,154.016 196.818,154.020 198.591 C 154.022 199.826,151.036 208.730,150.724 208.418 C 150.612 208.306,150.319 205.544,150.074 202.279 C 149.480 194.383,149.589 194.457,142.617 197.211 C 140.766 197.942,138.979 198.631,138.645 198.741 C 138.111 198.917,137.570 200.973,137.570 202.828 C 137.570 203.286,138.827 202.873,143.513 200.875 C 145.328 200.101,145.327 200.096,145.771 209.303 C 146.202 218.218,146.448 220.561,146.954 220.561 C 148.403 220.561,150.701 218.799,151.079 217.398 C 151.303 216.567,151.716 215.131,151.997 214.206 C 153.068 210.672,154.393 205.776,154.393 205.351 C 154.393 205.108,154.570 204.441,154.788 203.869 C 155.407 202.241,155.875 203.462,155.884 206.729 C 155.909 215.377,156.647 217.472,159.168 216.057 C 160.079 215.546,162.074 210.531,163.807 204.393 C 164.447 202.129,164.858 202.769,164.888 206.075 C 164.903 207.771,165.032 209.916,165.175 210.841 L 165.434 212.523 167.184 212.464 C 168.146 212.432,169.316 212.138,169.784 211.810 C 170.251 211.483,170.872 211.215,171.164 211.215 C 172.067 211.215,174.995 209.593,175.375 208.882 C 175.704 208.267,175.809 208.258,176.550 208.776 C 180.801 211.754,187.521 206.029,190.760 196.671 C 191.216 195.354,191.841 194.145,192.150 193.985 C 193.654 193.200,195.301 192.523,195.705 192.523 C 196.199 192.523,196.636 195.705,196.636 199.307 C 196.636 201.797,196.537 201.722,198.619 200.803 C 199.481 200.422,200.504 199.998,200.892 199.860 C 201.635 199.597,201.635 199.310,200.875 192.666 L 200.656 190.752 202.291 189.989 C 203.190 189.570,205.419 188.667,207.245 187.984 C 209.347 187.197,210.767 186.431,211.119 185.894 C 212.091 184.412,212.258 184.937,212.392 189.876 C 212.548 195.608,212.444 195.449,215.313 194.338 C 217.377 193.539,217.570 193.372,217.404 192.523 C 216.688 188.876,216.964 187.548,218.709 186.245 C 225.605 181.093,228.919 175.511,227.689 171.118 C 226.773 167.848,224.213 166.580,220.374 167.497 M195.997 185.234 L 196.205 189.720 194.910 190.374 C 192.470 191.606,192.105 191.205,193.050 188.331 C 193.340 187.450,193.689 186.140,193.827 185.421 C 195.077 178.873,195.699 178.819,195.997 185.234 M238.037 189.997 C 234.967 191.128,232.897 192.090,232.897 192.386 C 232.897 192.823,233.931 195.653,235.337 199.065 C 235.592 199.682,236.010 200.860,236.266 201.682 C 236.523 202.505,236.859 203.346,237.012 203.551 C 237.166 203.757,237.409 204.346,237.552 204.860 C 237.810 205.790,239.283 209.637,240.198 211.776 C 240.462 212.393,241.136 214.159,241.695 215.701 C 242.254 217.243,242.927 219.009,243.190 219.626 C 243.454 220.243,243.842 221.168,244.052 221.682 C 244.322 222.341,244.443 217.512,244.461 205.327 C 244.484 189.088,244.446 188.039,243.832 188.070 C 243.472 188.088,240.864 188.955,238.037 189.997 M188.411 196.147 C 188.411 197.235,185.811 202.172,184.514 203.547 C 181.230 207.029,178.936 202.677,182.135 199.033 C 184.057 196.843,188.411 194.841,188.411 196.147 " stroke="none" fill="#fbfbfb" fill-rule="evenodd"></path><path id="path2" d="M155.607 25.688 C 156.173 25.774,157.098 25.774,157.664 25.688 C 158.229 25.603,157.766 25.533,156.636 25.533 C 155.505 25.533,155.042 25.603,155.607 25.688 M61.495 31.028 C 62.508 32.056,63.420 32.897,63.523 32.897 C 63.626 32.897,62.882 32.056,61.869 31.028 C 60.857 30.000,59.944 29.159,59.841 29.159 C 59.738 29.159,60.483 30.000,61.495 31.028 M143.925 30.841 C 143.017 31.766,142.358 32.523,142.461 32.523 C 142.564 32.523,143.391 31.766,144.299 30.841 C 145.207 29.916,145.866 29.159,145.763 29.159 C 145.660 29.159,144.833 29.916,143.925 30.841 M169.346 30.841 C 170.043 31.561,170.698 32.150,170.801 32.150 C 170.904 32.150,170.417 31.561,169.720 30.841 C 169.022 30.121,168.367 29.533,168.265 29.533 C 168.162 29.533,168.648 30.121,169.346 30.841 M138.434 44.299 C 138.436 45.533,138.505 45.992,138.589 45.320 C 138.672 44.649,138.670 43.639,138.585 43.077 C 138.500 42.516,138.431 43.065,138.434 44.299 M31.213 182.804 C 31.213 260.009,31.256 291.593,31.308 252.991 C 31.361 214.388,31.361 151.220,31.308 112.617 C 31.256 74.014,31.213 105.598,31.213 182.804 M292.710 46.168 C 293.408 46.888,294.063 47.477,294.165 47.477 C 294.268 47.477,293.782 46.888,293.084 46.168 C 292.387 45.449,291.732 44.860,291.629 44.860 C 291.526 44.860,292.013 45.449,292.710 46.168 M297.196 49.837 C 297.196 49.901,297.743 50.448,298.411 51.052 L 299.626 52.150 298.528 50.935 C 297.505 49.802,297.196 49.548,297.196 49.837 M302.804 54.696 C 302.804 54.761,303.350 55.307,304.019 55.911 L 305.234 57.009 304.136 55.794 C 303.112 54.662,302.804 54.408,302.804 54.696 M318.131 68.224 C 318.828 68.944,319.483 69.533,319.586 69.533 C 319.689 69.533,319.202 68.944,318.505 68.224 C 317.807 67.505,317.152 66.916,317.050 66.916 C 316.947 66.916,317.433 67.505,318.131 68.224 M329.346 77.944 C 330.043 78.664,330.698 79.252,330.801 79.252 C 330.904 79.252,330.417 78.664,329.720 77.944 C 329.022 77.224,328.367 76.636,328.265 76.636 C 328.162 76.636,328.648 77.224,329.346 77.944 M280.461 109.604 C 280.413 124.139,280.500 136.109,280.654 136.204 C 280.908 136.361,280.905 117.510,280.647 92.710 C 280.592 87.467,280.508 95.070,280.461 109.604 M342.804 89.463 C 342.804 89.527,343.350 90.074,344.019 90.678 L 345.234 91.776 344.136 90.561 C 343.112 89.428,342.804 89.174,342.804 89.463 M354.019 99.182 C 354.019 99.247,354.565 99.793,355.234 100.397 L 356.449 101.495 355.351 100.280 C 354.327 99.148,354.019 98.894,354.019 99.182 M303.925 103.295 C 303.925 103.359,304.472 103.906,305.140 104.509 L 306.355 105.607 305.257 104.393 C 304.234 103.260,303.925 103.006,303.925 103.295 M201.932 112.916 C 202.151 113.544,202.399 113.987,202.484 113.903 C 202.669 113.718,201.963 111.776,201.711 111.776 C 201.614 111.776,201.713 112.289,201.932 112.916 M67.366 142.787 C 67.882 143.613,68.245 143.510,67.908 142.633 C 67.787 142.316,67.512 142.056,67.298 142.056 C 67.052 142.056,67.077 142.324,67.366 142.787 M174.669 158.318 L 174.754 174.766 174.953 159.065 C 175.063 150.430,175.192 143.603,175.240 143.894 C 175.288 144.185,175.414 144.337,175.521 144.230 C 175.627 144.124,175.460 143.549,175.149 142.953 C 174.638 141.973,174.592 143.444,174.669 158.318 M68.812 145.981 C 68.812 146.187,69.052 146.776,69.346 147.290 C 69.640 147.804,69.880 148.056,69.880 147.850 C 69.880 147.645,69.640 147.056,69.346 146.542 C 69.052 146.028,68.812 145.776,68.812 145.981 M219.812 172.240 C 220.530 172.327,221.372 172.594,221.681 172.834 C 222.170 173.215,222.177 173.187,221.730 172.617 C 221.389 172.182,220.762 171.983,219.861 172.022 L 218.505 172.082 219.812 172.240 M228.124 173.084 C 228.124 173.804,228.201 174.098,228.295 173.738 C 228.389 173.379,228.389 172.790,228.295 172.430 C 228.201 172.070,228.124 172.364,228.124 173.084 M210.654 175.153 C 209.715 175.606,209.685 175.657,210.467 175.468 C 210.981 175.344,211.562 175.094,211.757 174.911 C 212.242 174.459,211.975 174.517,210.654 175.153 M222.524 175.888 C 222.528 176.710,222.605 177.003,222.694 176.538 C 222.784 176.073,222.780 175.400,222.687 175.042 C 222.593 174.685,222.520 175.065,222.524 175.888 M280.557 247.290 C 280.557 287.178,280.601 303.440,280.654 283.428 C 280.708 263.417,280.708 230.781,280.654 210.905 C 280.601 191.029,280.557 207.402,280.557 247.290 M200.087 178.318 C 200.087 179.037,200.164 179.332,200.258 178.972 C 200.352 178.612,200.352 178.023,200.258 177.664 C 200.164 177.304,200.087 177.598,200.087 178.318 M211.717 181.121 C 211.718 182.766,211.784 183.393,211.863 182.513 C 211.942 181.634,211.941 180.288,211.861 179.523 C 211.780 178.757,211.716 179.477,211.717 181.121 M216.543 181.121 C 216.547 181.944,216.624 182.236,216.713 181.771 C 216.802 181.306,216.799 180.633,216.705 180.276 C 216.612 179.919,216.539 180.299,216.543 181.121 M195.640 183.178 C 195.640 184.720,195.706 185.350,195.786 184.579 C 195.867 183.808,195.867 182.547,195.786 181.776 C 195.706 181.005,195.640 181.636,195.640 183.178 M219.045 182.336 L 217.757 183.738 219.159 182.450 C 220.464 181.251,220.733 180.935,220.447 180.935 C 220.385 180.935,219.754 181.565,219.045 182.336 M83.017 182.991 C 83.017 183.196,83.258 183.785,83.551 184.299 C 83.845 184.813,84.086 185.065,84.086 184.860 C 84.086 184.654,83.845 184.065,83.551 183.551 C 83.258 183.037,83.017 182.785,83.017 182.991 M211.402 185.421 C 211.275 185.626,211.337 185.794,211.539 185.794 C 211.742 185.794,211.985 186.089,212.079 186.449 C 212.184 186.851,212.266 186.707,212.293 186.075 C 212.336 185.057,211.848 184.699,211.402 185.421 M195.982 188.598 C 195.986 189.421,196.063 189.713,196.152 189.248 C 196.242 188.783,196.238 188.110,196.145 187.753 C 196.051 187.395,195.978 187.776,195.982 188.598 M193.271 190.654 C 192.501 190.901,192.468 190.959,193.084 190.985 C 193.495 191.002,194.084 190.854,194.393 190.654 C 195.048 190.231,194.593 190.231,193.271 190.654 M200.895 190.810 C 200.783 191.101,200.752 191.816,200.826 192.398 C 200.936 193.263,200.995 193.166,201.144 191.869 C 201.333 190.235,201.251 189.883,200.895 190.810 M147.290 195.285 C 147.290 195.364,147.786 195.502,148.391 195.591 C 148.997 195.680,149.408 195.615,149.304 195.446 C 149.119 195.147,147.290 195.000,147.290 195.285 M159.713 197.009 C 159.713 197.729,159.790 198.023,159.884 197.664 C 159.978 197.304,159.978 196.715,159.884 196.355 C 159.790 195.995,159.713 196.290,159.713 197.009 M169.098 200.374 C 169.098 201.916,169.164 202.547,169.244 201.776 C 169.325 201.005,169.325 199.743,169.244 198.972 C 169.164 198.201,169.098 198.832,169.098 200.374 M150.008 201.121 C 150.008 202.047,150.081 202.425,150.170 201.963 C 150.259 201.500,150.259 200.743,150.170 200.280 C 150.081 199.818,150.008 200.196,150.008 201.121 M144.542 200.626 C 144.778 200.796,145.057 201.355,145.162 201.869 C 145.326 202.674,145.344 202.652,145.293 201.711 C 145.259 201.095,144.989 200.553,144.673 200.468 C 144.298 200.367,144.255 200.419,144.542 200.626 M180.647 202.617 C 180.647 203.336,180.724 203.631,180.818 203.271 C 180.912 202.911,180.912 202.322,180.818 201.963 C 180.724 201.603,180.647 201.897,180.647 202.617 M175.186 202.818 C 175.058 203.152,174.968 203.706,174.985 204.049 C 175.003 204.392,175.166 204.177,175.347 203.570 C 175.699 202.390,175.575 201.806,175.186 202.818 M150.396 205.421 C 150.398 206.654,150.468 207.114,150.551 206.442 C 150.635 205.770,150.633 204.761,150.547 204.199 C 150.462 203.637,150.394 204.187,150.396 205.421 M155.626 205.607 C 155.626 206.738,155.696 207.201,155.782 206.636 C 155.867 206.070,155.867 205.145,155.782 204.579 C 155.696 204.014,155.626 204.477,155.626 205.607 M169.397 206.427 C 169.369 207.802,169.472 209.006,169.626 209.102 C 169.780 209.197,169.858 208.408,169.799 207.348 C 169.620 204.161,169.451 203.773,169.397 206.427 M145.507 206.729 C 145.507 207.449,145.584 207.743,145.678 207.383 C 145.772 207.023,145.772 206.435,145.678 206.075 C 145.584 205.715,145.507 206.009,145.507 206.729 M156.000 213.458 C 156.000 214.589,156.070 215.051,156.156 214.486 C 156.241 213.921,156.241 212.995,156.156 212.430 C 156.070 211.864,156.000 212.327,156.000 213.458 M174.752 213.178 C 174.654 213.435,174.617 238.037,174.670 267.850 L 174.766 322.056 174.953 267.383 C 175.056 237.313,175.093 212.710,175.035 212.710 C 174.977 212.710,174.850 212.921,174.752 213.178 M280.461 321.869 C 280.461 322.589,280.537 322.883,280.632 322.523 C 280.726 322.164,280.726 321.575,280.632 321.215 C 280.537 320.855,280.461 321.150,280.461 321.869 M67.010 323.551 C 67.014 324.374,67.091 324.666,67.180 324.201 C 67.270 323.736,67.266 323.063,67.173 322.706 C 67.079 322.349,67.006 322.729,67.010 323.551 M142.617 333.458 C 143.420 334.280,144.161 334.953,144.264 334.953 C 144.367 334.953,143.794 334.280,142.991 333.458 C 142.188 332.636,141.446 331.963,141.344 331.963 C 141.241 331.963,141.814 332.636,142.617 333.458 M61.852 334.299 L 60.374 335.888 61.963 334.410 C 63.440 333.036,63.723 332.710,63.440 332.710 C 63.379 332.710,62.664 333.425,61.852 334.299 M169.326 334.112 L 168.037 335.514 169.439 334.226 C 170.744 333.027,171.013 332.710,170.728 332.710 C 170.665 332.710,170.034 333.341,169.326 334.112 M249.346 334.019 C 250.043 334.738,250.698 335.327,250.801 335.327 C 250.904 335.327,250.417 334.738,249.720 334.019 C 249.022 333.299,248.367 332.710,248.265 332.710 C 248.162 332.710,248.648 333.299,249.346 334.019 M155.421 339.336 C 156.089 339.419,157.182 339.419,157.850 339.336 C 158.519 339.253,157.972 339.185,156.636 339.185 C 155.299 339.185,154.752 339.253,155.421 339.336 M47.944 339.712 C 48.715 339.792,49.977 339.792,50.748 339.712 C 51.519 339.631,50.888 339.565,49.346 339.565 C 47.804 339.565,47.173 339.631,47.944 339.712 M261.595 339.710 C 262.267 339.793,263.277 339.792,263.838 339.706 C 264.400 339.621,263.850 339.553,262.617 339.555 C 261.383 339.557,260.924 339.627,261.595 339.710 " stroke="none" fill="#9d98a2" fill-rule="evenodd"></path><path id="path3" d="M48.509 26.059 C 48.974 26.148,49.647 26.145,50.004 26.051 C 50.362 25.958,49.981 25.885,49.159 25.889 C 48.336 25.893,48.044 25.969,48.509 26.059 M138.875 117.570 C 138.875 156.224,138.918 172.093,138.972 152.833 C 139.025 133.574,139.025 101.948,138.972 82.553 C 138.918 63.158,138.875 78.916,138.875 117.570 M67.095 178.131 C 67.095 197.869,67.141 205.889,67.196 195.953 C 67.252 186.017,67.252 169.867,67.196 160.065 C 67.141 150.263,67.095 158.393,67.095 178.131 M67.095 287.290 C 67.095 306.617,67.141 314.469,67.196 304.738 C 67.252 295.008,67.252 279.194,67.196 269.598 C 67.141 260.001,67.095 267.963,67.095 287.290 " stroke="none" fill="#817e84" fill-rule="evenodd"></path><path id="path4" d="M153.738 26.052 C 154.098 26.146,154.687 26.146,155.047 26.052 C 155.407 25.958,155.112 25.881,154.393 25.881 C 153.673 25.881,153.379 25.958,153.738 26.052 M158.416 26.059 C 158.881 26.148,159.553 26.145,159.911 26.051 C 160.268 25.958,159.888 25.885,159.065 25.889 C 158.243 25.893,157.951 25.969,158.416 26.059 M261.207 26.064 C 261.870 26.147,263.048 26.148,263.823 26.067 C 264.599 25.986,264.056 25.919,262.617 25.917 C 261.178 25.915,260.543 25.982,261.207 26.064 M169.159 31.028 C 169.962 31.850,170.703 32.523,170.806 32.523 C 170.909 32.523,170.336 31.850,169.533 31.028 C 168.730 30.206,167.988 29.533,167.886 29.533 C 167.783 29.533,168.356 30.206,169.159 31.028 M249.883 31.121 L 248.785 32.336 250.000 31.238 C 250.668 30.635,251.215 30.088,251.215 30.024 C 251.215 29.735,250.906 29.989,249.883 31.121 M65.635 37.383 C 65.772 37.897,66.041 38.570,66.231 38.879 C 66.472 39.268,66.502 39.154,66.328 38.505 C 66.190 37.991,65.922 37.318,65.731 37.009 C 65.491 36.620,65.461 36.734,65.635 37.383 M138.822 44.486 C 138.822 46.234,138.887 46.949,138.965 46.075 C 139.044 45.201,139.044 43.771,138.965 42.897 C 138.887 42.023,138.822 42.738,138.822 44.486 M244.486 95.963 C 244.383 125.611,244.426 149.742,244.581 149.588 C 244.736 149.433,244.820 125.175,244.768 95.681 L 244.673 42.056 244.486 95.963 M280.087 109.978 C 280.039 124.307,280.126 136.109,280.280 136.204 C 280.535 136.361,280.531 117.553,280.273 93.271 C 280.218 88.131,280.134 95.649,280.087 109.978 M284.486 86.098 C 284.486 86.163,285.033 86.709,285.701 87.313 L 286.916 88.411 285.818 87.196 C 284.794 86.064,284.486 85.809,284.486 86.098 M290.093 90.958 C 290.093 91.022,290.640 91.569,291.308 92.173 L 292.523 93.271 291.425 92.056 C 290.402 90.924,290.093 90.669,290.093 90.958 M347.664 93.949 C 347.664 94.013,348.210 94.560,348.879 95.164 L 350.093 96.262 348.995 95.047 C 347.972 93.914,347.664 93.660,347.664 93.949 M200.810 110.673 C 201.029 111.301,201.277 111.744,201.362 111.660 C 201.547 111.475,200.842 109.533,200.589 109.533 C 200.492 109.533,200.592 110.046,200.810 110.673 M322.905 119.659 L 323.755 120.626 322.905 121.035 C 322.438 121.261,322.234 121.456,322.452 121.470 C 323.794 121.556,324.151 120.541,323.104 119.617 L 322.056 118.692 322.905 119.659 M305.607 127.303 C 304.668 127.755,304.638 127.806,305.421 127.618 C 305.935 127.494,306.515 127.243,306.710 127.061 C 307.195 126.608,306.929 126.666,305.607 127.303 M103.988 137.963 C 104.207 138.590,104.455 139.034,104.540 138.949 C 104.725 138.764,104.019 136.822,103.767 136.822 C 103.670 136.822,103.769 137.336,103.988 137.963 M371.752 139.907 L 370.654 141.121 371.869 140.024 C 372.537 139.420,373.084 138.873,373.084 138.809 C 373.084 138.520,372.776 138.774,371.752 139.907 M213.111 142.617 C 213.111 142.822,213.351 143.411,213.645 143.925 C 213.939 144.439,214.179 144.692,214.179 144.486 C 214.179 144.280,213.939 143.692,213.645 143.178 C 213.351 142.664,213.111 142.411,213.111 142.617 M321.215 159.264 C 319.963 159.767,320.197 160.023,321.495 159.570 C 322.112 159.355,322.617 159.112,322.617 159.029 C 322.617 158.807,322.162 158.883,321.215 159.264 M199.323 175.207 C 199.670 175.298,200.029 175.657,200.121 176.004 C 200.239 176.452,200.300 176.390,200.330 175.794 C 200.364 175.147,200.180 174.963,199.533 174.997 C 198.937 175.027,198.876 175.089,199.323 175.207 M280.183 246.729 C 280.183 286.308,280.227 302.500,280.280 282.710 C 280.334 262.921,280.334 230.537,280.280 210.748 C 280.227 190.958,280.183 207.150,280.183 246.729 M216.543 177.009 C 216.547 177.832,216.624 178.124,216.713 177.659 C 216.802 177.194,216.799 176.521,216.705 176.164 C 216.612 175.806,216.539 176.187,216.543 177.009 M211.359 177.735 C 211.245 178.032,211.218 178.578,211.298 178.950 C 211.390 179.372,211.518 179.170,211.639 178.411 C 211.842 177.138,211.710 176.819,211.359 177.735 M200.486 180.935 C 200.486 182.065,200.556 182.528,200.642 181.963 C 200.727 181.397,200.727 180.472,200.642 179.907 C 200.556 179.341,200.486 179.804,200.486 180.935 M195.621 188.224 C 195.624 189.252,195.696 189.629,195.782 189.060 C 195.868 188.492,195.866 187.651,195.777 187.191 C 195.688 186.731,195.618 187.196,195.621 188.224 M244.103 187.536 C 244.357 187.662,244.484 193.684,244.480 205.358 C 244.476 218.073,244.362 222.834,244.071 222.430 C 243.736 221.964,243.705 221.984,243.890 222.554 C 244.012 222.931,244.112 223.309,244.112 223.395 C 244.112 223.481,244.282 223.551,244.490 223.551 C 245.100 223.551,244.808 187.566,244.196 187.442 C 243.934 187.389,243.892 187.431,244.103 187.536 M217.291 188.972 C 217.295 189.794,217.371 190.087,217.461 189.622 C 217.550 189.157,217.547 188.484,217.453 188.126 C 217.360 187.769,217.286 188.150,217.291 188.972 M212.093 191.028 C 212.093 192.776,212.158 193.491,212.236 192.617 C 212.315 191.743,212.315 190.313,212.236 189.439 C 212.158 188.565,212.093 189.280,212.093 191.028 M201.270 190.806 C 201.160 191.094,201.128 191.893,201.200 192.581 C 201.314 193.678,201.352 193.613,201.509 192.056 C 201.692 190.235,201.625 189.882,201.270 190.806 M195.995 194.579 C 195.998 195.607,196.070 195.984,196.156 195.415 C 196.242 194.847,196.240 194.006,196.151 193.546 C 196.062 193.086,195.992 193.551,195.995 194.579 M157.757 194.291 C 158.271 194.384,159.028 194.740,159.439 195.081 C 160.181 195.696,160.181 195.694,159.475 194.860 C 159.040 194.346,158.385 194.039,157.793 194.070 L 156.822 194.121 157.757 194.291 M168.527 195.701 C 168.716 196.112,168.964 196.701,169.079 197.009 C 169.258 197.494,169.291 197.491,169.316 196.987 C 169.333 196.667,169.084 196.078,168.764 195.679 C 168.192 194.965,168.189 194.965,168.527 195.701 M160.094 198.318 C 160.098 199.140,160.175 199.433,160.264 198.968 C 160.354 198.503,160.350 197.830,160.257 197.472 C 160.163 197.115,160.090 197.495,160.094 198.318 M196.369 199.065 C 196.371 200.093,196.444 200.470,196.530 199.901 C 196.616 199.333,196.614 198.492,196.525 198.032 C 196.436 197.572,196.366 198.037,196.369 199.065 M137.291 201.308 C 137.295 202.131,137.371 202.423,137.461 201.958 C 137.550 201.493,137.547 200.820,137.453 200.463 C 137.360 200.106,137.286 200.486,137.291 201.308 M169.433 202.243 C 169.433 202.963,169.509 203.257,169.603 202.897 C 169.698 202.537,169.698 201.949,169.603 201.589 C 169.509 201.229,169.433 201.523,169.433 202.243 M184.089 203.458 L 182.991 204.673 184.206 203.575 C 185.338 202.551,185.592 202.243,185.304 202.243 C 185.239 202.243,184.693 202.790,184.089 203.458 M163.916 204.514 C 163.781 204.941,163.770 205.389,163.891 205.511 C 164.013 205.633,164.142 205.410,164.178 205.016 C 164.214 204.621,164.353 205.477,164.486 206.916 L 164.728 209.533 164.794 206.636 C 164.857 203.867,164.441 202.861,163.916 204.514 M174.681 205.234 C 174.681 206.159,174.754 206.537,174.843 206.075 C 174.932 205.612,174.932 204.855,174.843 204.393 C 174.754 203.930,174.681 204.308,174.681 205.234 M145.141 205.794 C 145.145 206.617,145.222 206.909,145.311 206.444 C 145.401 205.979,145.397 205.306,145.304 204.949 C 145.210 204.591,145.137 204.972,145.141 205.794 M185.584 206.449 L 184.486 207.664 185.701 206.566 C 186.833 205.542,187.088 205.234,186.799 205.234 C 186.735 205.234,186.188 205.780,185.584 206.449 M145.540 210.841 C 145.540 212.178,145.608 212.724,145.691 212.056 C 145.774 211.388,145.774 210.294,145.691 209.626 C 145.608 208.958,145.540 209.505,145.540 210.841 M155.634 211.589 C 155.634 212.925,155.702 213.472,155.784 212.804 C 155.867 212.136,155.867 211.042,155.784 210.374 C 155.702 209.706,155.634 210.252,155.634 211.589 M108.474 248.617 C 108.693 249.245,108.941 249.688,109.026 249.604 C 109.211 249.419,108.505 247.477,108.253 247.477 C 108.156 247.477,108.255 247.990,108.474 248.617 M280.094 322.804 C 280.098 323.626,280.175 323.919,280.264 323.454 C 280.354 322.989,280.350 322.316,280.257 321.958 C 280.163 321.601,280.090 321.981,280.094 322.804 M32.143 325.719 L 32.323 327.664 32.447 326.024 C 32.515 325.122,32.434 324.247,32.267 324.079 C 32.100 323.912,32.044 324.649,32.143 325.719 M169.141 333.925 L 167.664 335.514 169.252 334.036 C 170.730 332.662,171.013 332.336,170.730 332.336 C 170.669 332.336,169.954 333.051,169.141 333.925 M249.907 334.206 C 250.710 335.028,251.451 335.701,251.554 335.701 C 251.656 335.701,251.083 335.028,250.280 334.206 C 249.477 333.383,248.736 332.710,248.633 332.710 C 248.531 332.710,249.103 333.383,249.907 334.206 M35.514 333.201 C 35.514 333.265,36.061 333.812,36.729 334.416 L 37.944 335.514 36.846 334.299 C 35.822 333.167,35.514 332.912,35.514 333.201 " stroke="none" fill="#74747c" fill-rule="evenodd"></path></g></svg>